<mxfile host="app.diagrams.net" agent="Mozilla/5.0 (Windows NT 10.0; Win64; x64) AppleWebKit/537.36 (KHTML, like Gecko) Chrome/127.0.0.0 Safari/537.36" version="27.0.5">
  <diagram name="第 1 页" id="8BYjrKQEcnkvC4qt9uhP">
    <mxGraphModel dx="868" dy="548" grid="1" gridSize="10" guides="1" tooltips="1" connect="1" arrows="1" fold="1" page="1" pageScale="1" pageWidth="1654" pageHeight="2336" math="0" shadow="0">
      <root>
        <mxCell id="0" />
        <mxCell id="1" parent="0" />
        <mxCell id="-HOcBsGQ5maN-fvE64OM-13" style="edgeStyle=orthogonalEdgeStyle;rounded=0;orthogonalLoop=1;jettySize=auto;html=1;exitX=1;exitY=0.5;exitDx=0;exitDy=0;entryX=0;entryY=0.5;entryDx=0;entryDy=0;" edge="1" parent="1" source="-HOcBsGQ5maN-fvE64OM-1" target="-HOcBsGQ5maN-fvE64OM-2">
          <mxGeometry relative="1" as="geometry" />
        </mxCell>
        <mxCell id="-HOcBsGQ5maN-fvE64OM-1" value="Conv" style="rounded=1;whiteSpace=wrap;html=1;fillColor=#dae8fc;strokeColor=#6c8ebf;textShadow=0;" vertex="1" parent="1">
          <mxGeometry x="120" y="140" width="80" height="20" as="geometry" />
        </mxCell>
        <mxCell id="-HOcBsGQ5maN-fvE64OM-15" style="edgeStyle=orthogonalEdgeStyle;rounded=0;orthogonalLoop=1;jettySize=auto;html=1;exitX=1;exitY=0.5;exitDx=0;exitDy=0;entryX=0;entryY=0.5;entryDx=0;entryDy=0;" edge="1" parent="1" source="-HOcBsGQ5maN-fvE64OM-2" target="-HOcBsGQ5maN-fvE64OM-3">
          <mxGeometry relative="1" as="geometry" />
        </mxCell>
        <mxCell id="-HOcBsGQ5maN-fvE64OM-2" value="Conv" style="rounded=1;whiteSpace=wrap;html=1;fillColor=#dae8fc;strokeColor=#6c8ebf;textShadow=0;" vertex="1" parent="1">
          <mxGeometry x="240" y="140" width="80" height="20" as="geometry" />
        </mxCell>
        <mxCell id="-HOcBsGQ5maN-fvE64OM-21" style="edgeStyle=orthogonalEdgeStyle;rounded=0;orthogonalLoop=1;jettySize=auto;html=1;exitX=1;exitY=0.5;exitDx=0;exitDy=0;entryX=0;entryY=0.5;entryDx=0;entryDy=0;" edge="1" parent="1" source="-HOcBsGQ5maN-fvE64OM-3" target="-HOcBsGQ5maN-fvE64OM-9">
          <mxGeometry relative="1" as="geometry" />
        </mxCell>
        <mxCell id="-HOcBsGQ5maN-fvE64OM-3" value="Conv2d" style="rounded=1;whiteSpace=wrap;html=1;fillColor=#dae8fc;strokeColor=#6c8ebf;textShadow=0;" vertex="1" parent="1">
          <mxGeometry x="360" y="140" width="80" height="20" as="geometry" />
        </mxCell>
        <mxCell id="-HOcBsGQ5maN-fvE64OM-4" value="DWConv" style="rounded=1;whiteSpace=wrap;html=1;fillColor=#0050ef;strokeColor=#001DBC;textShadow=0;fontColor=#ffffff;" vertex="1" parent="1">
          <mxGeometry x="120" y="180" width="80" height="20" as="geometry" />
        </mxCell>
        <mxCell id="-HOcBsGQ5maN-fvE64OM-18" value="" style="edgeStyle=orthogonalEdgeStyle;rounded=0;orthogonalLoop=1;jettySize=auto;html=1;" edge="1" parent="1" source="-HOcBsGQ5maN-fvE64OM-5" target="-HOcBsGQ5maN-fvE64OM-7">
          <mxGeometry relative="1" as="geometry" />
        </mxCell>
        <mxCell id="-HOcBsGQ5maN-fvE64OM-5" value="DWConv" style="rounded=1;whiteSpace=wrap;html=1;fillColor=#0050ef;strokeColor=#001DBC;textShadow=0;fontColor=#ffffff;" vertex="1" parent="1">
          <mxGeometry x="360" y="180" width="80" height="20" as="geometry" />
        </mxCell>
        <mxCell id="-HOcBsGQ5maN-fvE64OM-17" value="" style="edgeStyle=orthogonalEdgeStyle;rounded=0;orthogonalLoop=1;jettySize=auto;html=1;" edge="1" parent="1" source="-HOcBsGQ5maN-fvE64OM-6" target="-HOcBsGQ5maN-fvE64OM-5">
          <mxGeometry relative="1" as="geometry" />
        </mxCell>
        <mxCell id="-HOcBsGQ5maN-fvE64OM-6" value="Conv k=1" style="rounded=1;whiteSpace=wrap;html=1;fillColor=#dae8fc;strokeColor=#6c8ebf;textShadow=0;" vertex="1" parent="1">
          <mxGeometry x="240" y="180" width="80" height="20" as="geometry" />
        </mxCell>
        <mxCell id="-HOcBsGQ5maN-fvE64OM-19" value="" style="edgeStyle=orthogonalEdgeStyle;rounded=0;orthogonalLoop=1;jettySize=auto;html=1;" edge="1" parent="1" source="-HOcBsGQ5maN-fvE64OM-7" target="-HOcBsGQ5maN-fvE64OM-8">
          <mxGeometry relative="1" as="geometry" />
        </mxCell>
        <mxCell id="-HOcBsGQ5maN-fvE64OM-7" value="Conv k=1" style="rounded=1;whiteSpace=wrap;html=1;fillColor=#dae8fc;strokeColor=#6c8ebf;textShadow=0;" vertex="1" parent="1">
          <mxGeometry x="480" y="180" width="80" height="20" as="geometry" />
        </mxCell>
        <mxCell id="-HOcBsGQ5maN-fvE64OM-20" value="" style="edgeStyle=orthogonalEdgeStyle;rounded=0;orthogonalLoop=1;jettySize=auto;html=1;" edge="1" parent="1" source="-HOcBsGQ5maN-fvE64OM-8" target="-HOcBsGQ5maN-fvE64OM-10">
          <mxGeometry relative="1" as="geometry" />
        </mxCell>
        <mxCell id="-HOcBsGQ5maN-fvE64OM-8" value="Conv2d" style="rounded=1;whiteSpace=wrap;html=1;fillColor=#dae8fc;strokeColor=#6c8ebf;textShadow=0;" vertex="1" parent="1">
          <mxGeometry x="600" y="180" width="80" height="20" as="geometry" />
        </mxCell>
        <mxCell id="-HOcBsGQ5maN-fvE64OM-9" value="CIoU" style="rounded=0;whiteSpace=wrap;html=1;fillColor=#e1d5e7;strokeColor=#9673a6;" vertex="1" parent="1">
          <mxGeometry x="720" y="140" width="80" height="20" as="geometry" />
        </mxCell>
        <mxCell id="-HOcBsGQ5maN-fvE64OM-10" value="CLSLoss" style="rounded=0;whiteSpace=wrap;html=1;fillColor=#e1d5e7;strokeColor=#9673a6;" vertex="1" parent="1">
          <mxGeometry x="720" y="180" width="80" height="20" as="geometry" />
        </mxCell>
        <mxCell id="-HOcBsGQ5maN-fvE64OM-16" style="edgeStyle=orthogonalEdgeStyle;rounded=0;orthogonalLoop=1;jettySize=auto;html=1;exitX=1;exitY=0.5;exitDx=0;exitDy=0;entryX=-0.041;entryY=0.4;entryDx=0;entryDy=0;entryPerimeter=0;" edge="1" parent="1" source="-HOcBsGQ5maN-fvE64OM-4" target="-HOcBsGQ5maN-fvE64OM-6">
          <mxGeometry relative="1" as="geometry" />
        </mxCell>
        <mxCell id="-HOcBsGQ5maN-fvE64OM-22" value="" style="endArrow=classic;html=1;rounded=0;" edge="1" parent="1">
          <mxGeometry width="50" height="50" relative="1" as="geometry">
            <mxPoint x="90" y="189.87" as="sourcePoint" />
            <mxPoint x="120" y="189.87" as="targetPoint" />
          </mxGeometry>
        </mxCell>
        <mxCell id="-HOcBsGQ5maN-fvE64OM-23" value="" style="endArrow=classic;html=1;rounded=0;" edge="1" parent="1">
          <mxGeometry width="50" height="50" relative="1" as="geometry">
            <mxPoint x="90" y="149.87" as="sourcePoint" />
            <mxPoint x="120" y="149.87" as="targetPoint" />
          </mxGeometry>
        </mxCell>
      </root>
    </mxGraphModel>
  </diagram>
</mxfile>
